<mxfile host="app.diagrams.net" agent="Mozilla/5.0 (Macintosh; Intel Mac OS X 10_15_7) AppleWebKit/537.36 (KHTML, like Gecko) Chrome/140.0.0.0 Safari/537.36" version="28.1.0">
  <diagram name="Page-1" id="7iuWsG1IzcPMSFmJJ5QS">
    <mxGraphModel dx="1466" dy="1224" grid="1" gridSize="10" guides="1" tooltips="1" connect="1" arrows="1" fold="1" page="1" pageScale="1" pageWidth="1169" pageHeight="827" math="0" shadow="0">
      <root>
        <mxCell id="0" />
        <mxCell id="1" parent="0" />
        <mxCell id="a_kwU8BcRcJPpGyx1TBg-1" value="Region" style="points=[[0,0],[0.25,0],[0.5,0],[0.75,0],[1,0],[1,0.25],[1,0.5],[1,0.75],[1,1],[0.75,1],[0.5,1],[0.25,1],[0,1],[0,0.75],[0,0.5],[0,0.25]];outlineConnect=0;gradientColor=none;html=1;whiteSpace=wrap;fontSize=12;fontStyle=0;container=1;pointerEvents=0;collapsible=0;recursiveResize=0;shape=mxgraph.aws4.group;grIcon=mxgraph.aws4.group_region;strokeColor=#00A4A6;fillColor=none;verticalAlign=top;align=left;spacingLeft=30;fontColor=#147EBA;dashed=1;" vertex="1" parent="1">
          <mxGeometry x="200" y="10" width="1011" height="850" as="geometry" />
        </mxCell>
        <mxCell id="a_kwU8BcRcJPpGyx1TBg-2" value="VPC" style="points=[[0,0],[0.25,0],[0.5,0],[0.75,0],[1,0],[1,0.25],[1,0.5],[1,0.75],[1,1],[0.75,1],[0.5,1],[0.25,1],[0,1],[0,0.75],[0,0.5],[0,0.25]];outlineConnect=0;gradientColor=none;html=1;whiteSpace=wrap;fontSize=12;fontStyle=0;container=1;pointerEvents=0;collapsible=0;recursiveResize=0;shape=mxgraph.aws4.group;grIcon=mxgraph.aws4.group_vpc2;strokeColor=#8C4FFF;fillColor=none;verticalAlign=top;align=left;spacingLeft=30;fontColor=#AAB7B8;dashed=0;" vertex="1" parent="a_kwU8BcRcJPpGyx1TBg-1">
          <mxGeometry x="90" y="50" width="891" height="800" as="geometry" />
        </mxCell>
        <mxCell id="a_kwU8BcRcJPpGyx1TBg-3" value="" style="container=1;collapsible=0;expand=0;recursiveResize=0;html=1;whiteSpace=wrap;strokeColor=#1192E8;fillColor=none;strokeWidth=1" vertex="1" parent="a_kwU8BcRcJPpGyx1TBg-2">
          <mxGeometry x="60" y="10" width="650" height="510" as="geometry" />
        </mxCell>
        <mxCell id="a_kwU8BcRcJPpGyx1TBg-4" value="Subnet" style="shape=rect;fillColor=none;aspect=fixed;resizable=0;labelPosition=right;verticalLabelPosition=middle;align=left;verticalAlign=middle;strokeColor=none;part=1;spacingLeft=5;fontSize=14;" vertex="1" parent="a_kwU8BcRcJPpGyx1TBg-3">
          <mxGeometry width="48" height="48" relative="1" as="geometry" />
        </mxCell>
        <mxCell id="a_kwU8BcRcJPpGyx1TBg-5" value="" style="fillColor=#1192E8;shape=mxgraph.ibm_cloud.ibm-cloud--subnets;strokeColor=none;dashed=0;outlineConnect=0;html=1;labelPosition=center;verticalLabelPosition=bottom;verticalAlign=top;part=1;movable=0;resizable=0;rotatable=0;" vertex="1" parent="a_kwU8BcRcJPpGyx1TBg-4">
          <mxGeometry width="24" height="24" relative="1" as="geometry">
            <mxPoint x="12" y="12" as="offset" />
          </mxGeometry>
        </mxCell>
        <mxCell id="a_kwU8BcRcJPpGyx1TBg-6" value="" style="shape=rect;fillColor=#1192E8;aspect=fixed;resizable=0;labelPosition=right;verticalLabelPosition=middle;align=left;verticalAlign=middle;strokeColor=none;part=1;spacingLeft=5;fontSize=14;" vertex="1" parent="a_kwU8BcRcJPpGyx1TBg-3">
          <mxGeometry width="4" height="48" relative="1" as="geometry" />
        </mxCell>
        <mxCell id="a_kwU8BcRcJPpGyx1TBg-7" value="EKS&lt;div&gt;&lt;br&gt;&lt;/div&gt;" style="points=[[0,0],[0.25,0],[0.5,0],[0.75,0],[1,0],[1,0.25],[1,0.5],[1,0.75],[1,1],[0.75,1],[0.5,1],[0.25,1],[0,1],[0,0.75],[0,0.5],[0,0.25]];outlineConnect=0;gradientColor=none;html=1;whiteSpace=wrap;fontSize=12;fontStyle=0;container=1;pointerEvents=0;collapsible=0;recursiveResize=0;shape=mxgraph.aws4.group;grIcon=mxgraph.aws4.group_ec2_instance_contents;strokeColor=#D86613;fillColor=none;verticalAlign=top;align=left;spacingLeft=30;fontColor=#D86613;dashed=0;" vertex="1" parent="a_kwU8BcRcJPpGyx1TBg-3">
          <mxGeometry x="30" y="50" width="470" height="310" as="geometry" />
        </mxCell>
        <mxCell id="a_kwU8BcRcJPpGyx1TBg-11" value="UI" style="rounded=0;whiteSpace=wrap;html=1;" vertex="1" parent="a_kwU8BcRcJPpGyx1TBg-7">
          <mxGeometry x="40" y="20" width="50" height="60" as="geometry" />
        </mxCell>
        <mxCell id="a_kwU8BcRcJPpGyx1TBg-48" value="Metrics" style="rounded=0;whiteSpace=wrap;html=1;" vertex="1" parent="a_kwU8BcRcJPpGyx1TBg-7">
          <mxGeometry x="330" y="275" width="105" height="29" as="geometry" />
        </mxCell>
        <mxCell id="a_kwU8BcRcJPpGyx1TBg-59" value="API" style="rounded=0;whiteSpace=wrap;html=1;" vertex="1" parent="a_kwU8BcRcJPpGyx1TBg-7">
          <mxGeometry x="40" y="150" width="50" height="125" as="geometry" />
        </mxCell>
        <mxCell id="a_kwU8BcRcJPpGyx1TBg-70" value="" style="endArrow=classic;startArrow=classic;html=1;rounded=0;exitX=0.5;exitY=1;exitDx=0;exitDy=0;entryX=0.5;entryY=0;entryDx=0;entryDy=0;" edge="1" parent="a_kwU8BcRcJPpGyx1TBg-7" source="a_kwU8BcRcJPpGyx1TBg-11" target="a_kwU8BcRcJPpGyx1TBg-59">
          <mxGeometry width="50" height="50" relative="1" as="geometry">
            <mxPoint x="160" y="370" as="sourcePoint" />
            <mxPoint x="210" y="320" as="targetPoint" />
          </mxGeometry>
        </mxCell>
        <mxCell id="a_kwU8BcRcJPpGyx1TBg-32" value="" style="endArrow=classic;startArrow=classic;html=1;rounded=0;entryX=0.399;entryY=1.01;entryDx=0;entryDy=0;entryPerimeter=0;exitX=0.535;exitY=0.021;exitDx=0;exitDy=0;exitPerimeter=0;" edge="1" parent="a_kwU8BcRcJPpGyx1TBg-7" source="a_kwU8BcRcJPpGyx1TBg-36">
          <mxGeometry width="50" height="50" relative="1" as="geometry">
            <mxPoint x="290" y="550" as="sourcePoint" />
            <mxPoint x="290.00000000000006" y="245.79999999999995" as="targetPoint" />
          </mxGeometry>
        </mxCell>
        <mxCell id="a_kwU8BcRcJPpGyx1TBg-156" value="" style="endArrow=classic;startArrow=classic;html=1;rounded=0;entryX=1.016;entryY=0.821;entryDx=0;entryDy=0;entryPerimeter=0;exitX=0.5;exitY=0;exitDx=0;exitDy=0;exitPerimeter=0;" edge="1" parent="a_kwU8BcRcJPpGyx1TBg-7" source="a_kwU8BcRcJPpGyx1TBg-155">
          <mxGeometry width="50" height="50" relative="1" as="geometry">
            <mxPoint x="629.2" y="568.88" as="sourcePoint" />
            <mxPoint x="89.99999999999994" y="264.005" as="targetPoint" />
            <Array as="points">
              <mxPoint x="629.2" y="511.38" />
              <mxPoint x="499.20000000000005" y="511.38" />
              <mxPoint x="499.20000000000005" y="264.38" />
            </Array>
          </mxGeometry>
        </mxCell>
        <mxCell id="a_kwU8BcRcJPpGyx1TBg-22" value="EKS&lt;div&gt;&lt;br&gt;&lt;/div&gt;" style="points=[[0,0],[0.25,0],[0.5,0],[0.75,0],[1,0],[1,0.25],[1,0.5],[1,0.75],[1,1],[0.75,1],[0.5,1],[0.25,1],[0,1],[0,0.75],[0,0.5],[0,0.25]];outlineConnect=0;gradientColor=none;html=1;whiteSpace=wrap;fontSize=12;fontStyle=0;container=1;pointerEvents=0;collapsible=0;recursiveResize=0;shape=mxgraph.aws4.group;grIcon=mxgraph.aws4.group_ec2_instance_contents;strokeColor=#D86613;fillColor=none;verticalAlign=top;align=left;spacingLeft=30;fontColor=#D86613;dashed=0;" vertex="1" parent="a_kwU8BcRcJPpGyx1TBg-3">
          <mxGeometry x="100" y="380" width="160" height="110" as="geometry" />
        </mxCell>
        <mxCell id="a_kwU8BcRcJPpGyx1TBg-30" value="" style="outlineConnect=0;dashed=0;verticalLabelPosition=bottom;verticalAlign=top;align=center;html=1;shape=mxgraph.aws3.worker;fillColor=#D9A741;gradientColor=none;" vertex="1" parent="a_kwU8BcRcJPpGyx1TBg-22">
          <mxGeometry x="127.5" y="75" width="25" height="23" as="geometry" />
        </mxCell>
        <mxCell id="a_kwU8BcRcJPpGyx1TBg-29" value="" style="outlineConnect=0;dashed=0;verticalLabelPosition=bottom;verticalAlign=top;align=center;html=1;shape=mxgraph.aws3.worker;fillColor=#D9A741;gradientColor=none;" vertex="1" parent="a_kwU8BcRcJPpGyx1TBg-22">
          <mxGeometry x="30" y="75" width="25" height="23" as="geometry" />
        </mxCell>
        <mxCell id="a_kwU8BcRcJPpGyx1TBg-31" value="" style="endArrow=none;dashed=1;html=1;dashPattern=1 3;strokeWidth=2;rounded=0;exitX=1;exitY=0.5;exitDx=0;exitDy=0;exitPerimeter=0;entryX=0;entryY=0.5;entryDx=0;entryDy=0;entryPerimeter=0;" edge="1" parent="a_kwU8BcRcJPpGyx1TBg-22" source="a_kwU8BcRcJPpGyx1TBg-29" target="a_kwU8BcRcJPpGyx1TBg-30">
          <mxGeometry width="50" height="50" relative="1" as="geometry">
            <mxPoint x="115" y="15" as="sourcePoint" />
            <mxPoint x="165" y="-35" as="targetPoint" />
          </mxGeometry>
        </mxCell>
        <mxCell id="a_kwU8BcRcJPpGyx1TBg-26" value="" style="rounded=0;whiteSpace=wrap;html=1;" vertex="1" parent="a_kwU8BcRcJPpGyx1TBg-3">
          <mxGeometry x="180" y="215" width="310" height="80" as="geometry" />
        </mxCell>
        <mxCell id="a_kwU8BcRcJPpGyx1TBg-27" value="Workflow&lt;div&gt;Execution&amp;nbsp;&lt;/div&gt;&lt;div&gt;Service&lt;/div&gt;" style="text;html=1;align=center;verticalAlign=middle;whiteSpace=wrap;rounded=0;" vertex="1" parent="a_kwU8BcRcJPpGyx1TBg-3">
          <mxGeometry x="210" y="230" width="60" height="55" as="geometry" />
        </mxCell>
        <mxCell id="a_kwU8BcRcJPpGyx1TBg-28" value="State Machine&lt;div&gt;Evaluator / Orchestrator&lt;/div&gt;" style="text;html=1;align=center;verticalAlign=middle;whiteSpace=wrap;rounded=0;" vertex="1" parent="a_kwU8BcRcJPpGyx1TBg-3">
          <mxGeometry x="235" y="230" width="205" height="55" as="geometry" />
        </mxCell>
        <mxCell id="a_kwU8BcRcJPpGyx1TBg-51" value="" style="endArrow=classic;html=1;rounded=0;exitX=1;exitY=0.5;exitDx=0;exitDy=0;entryX=0.205;entryY=-0.004;entryDx=0;entryDy=0;entryPerimeter=0;" edge="1" parent="a_kwU8BcRcJPpGyx1TBg-3" source="a_kwU8BcRcJPpGyx1TBg-11" target="a_kwU8BcRcJPpGyx1TBg-26">
          <mxGeometry width="50" height="50" relative="1" as="geometry">
            <mxPoint x="175" y="415" as="sourcePoint" />
            <mxPoint x="225" y="365" as="targetPoint" />
            <Array as="points">
              <mxPoint x="246" y="100" />
            </Array>
          </mxGeometry>
        </mxCell>
        <mxCell id="a_kwU8BcRcJPpGyx1TBg-67" value="" style="sketch=0;outlineConnect=0;fontColor=#232F3E;gradientColor=none;fillColor=#8C4FFF;strokeColor=none;dashed=0;verticalLabelPosition=bottom;verticalAlign=top;align=center;html=1;fontSize=12;fontStyle=0;aspect=fixed;pointerEvents=1;shape=mxgraph.aws4.elastic_network_interface;" vertex="1" parent="a_kwU8BcRcJPpGyx1TBg-3">
          <mxGeometry x="580" y="408.5" width="53" height="53" as="geometry" />
        </mxCell>
        <mxCell id="a_kwU8BcRcJPpGyx1TBg-68" value="" style="endArrow=classic;startArrow=classic;html=1;rounded=0;" edge="1" parent="a_kwU8BcRcJPpGyx1TBg-3" source="a_kwU8BcRcJPpGyx1TBg-22" target="a_kwU8BcRcJPpGyx1TBg-67">
          <mxGeometry width="50" height="50" relative="1" as="geometry">
            <mxPoint x="175" y="415" as="sourcePoint" />
            <mxPoint x="225" y="365" as="targetPoint" />
          </mxGeometry>
        </mxCell>
        <mxCell id="a_kwU8BcRcJPpGyx1TBg-71" value="" style="endArrow=classic;startArrow=classic;html=1;rounded=0;entryX=0;entryY=0.75;entryDx=0;entryDy=0;" edge="1" parent="a_kwU8BcRcJPpGyx1TBg-3" target="a_kwU8BcRcJPpGyx1TBg-26">
          <mxGeometry width="50" height="50" relative="1" as="geometry">
            <mxPoint x="122" y="275" as="sourcePoint" />
            <mxPoint x="240" y="370" as="targetPoint" />
          </mxGeometry>
        </mxCell>
        <mxCell id="a_kwU8BcRcJPpGyx1TBg-152" value="ENI" style="text;html=1;align=center;verticalAlign=middle;whiteSpace=wrap;rounded=0;" vertex="1" parent="a_kwU8BcRcJPpGyx1TBg-3">
          <mxGeometry x="576.5" y="378.5" width="60" height="30" as="geometry" />
        </mxCell>
        <mxCell id="a_kwU8BcRcJPpGyx1TBg-163" value="System Tasks&lt;br&gt;HTTP, CLI, JS Engine" style="whiteSpace=wrap;html=1;aspect=fixed;" vertex="1" parent="a_kwU8BcRcJPpGyx1TBg-3">
          <mxGeometry x="330" y="80" width="80" height="80" as="geometry" />
        </mxCell>
        <mxCell id="a_kwU8BcRcJPpGyx1TBg-164" value="" style="endArrow=classic;startArrow=classic;html=1;rounded=0;exitX=1.071;exitY=0.389;exitDx=0;exitDy=0;exitPerimeter=0;entryX=0;entryY=0.75;entryDx=0;entryDy=0;" edge="1" parent="a_kwU8BcRcJPpGyx1TBg-3" source="a_kwU8BcRcJPpGyx1TBg-59" target="a_kwU8BcRcJPpGyx1TBg-163">
          <mxGeometry width="50" height="50" relative="1" as="geometry">
            <mxPoint x="370" y="340" as="sourcePoint" />
            <mxPoint x="420" y="290" as="targetPoint" />
            <Array as="points">
              <mxPoint x="170" y="249" />
              <mxPoint x="170" y="140" />
            </Array>
          </mxGeometry>
        </mxCell>
        <mxCell id="a_kwU8BcRcJPpGyx1TBg-165" value="Event Handling" style="text;html=1;align=center;verticalAlign=middle;whiteSpace=wrap;rounded=0;" vertex="1" parent="a_kwU8BcRcJPpGyx1TBg-3">
          <mxGeometry x="410" y="240" width="60" height="30" as="geometry" />
        </mxCell>
        <mxCell id="a_kwU8BcRcJPpGyx1TBg-76" value="" style="whiteSpace=wrap;html=1;aspect=fixed;" vertex="1" parent="a_kwU8BcRcJPpGyx1TBg-2">
          <mxGeometry x="20" y="560" width="150" height="150" as="geometry" />
        </mxCell>
        <mxCell id="a_kwU8BcRcJPpGyx1TBg-77" value="Notification&lt;div&gt;Service&lt;/div&gt;" style="whiteSpace=wrap;html=1;aspect=fixed;" vertex="1" parent="a_kwU8BcRcJPpGyx1TBg-2">
          <mxGeometry x="20" y="560" width="60" height="60" as="geometry" />
        </mxCell>
        <mxCell id="a_kwU8BcRcJPpGyx1TBg-78" value="AutoScalar" style="whiteSpace=wrap;html=1;aspect=fixed;" vertex="1" parent="a_kwU8BcRcJPpGyx1TBg-2">
          <mxGeometry x="20" y="650" width="60" height="60" as="geometry" />
        </mxCell>
        <mxCell id="a_kwU8BcRcJPpGyx1TBg-79" value="SS-Bacnked" style="whiteSpace=wrap;html=1;aspect=fixed;" vertex="1" parent="a_kwU8BcRcJPpGyx1TBg-2">
          <mxGeometry x="109" y="560" width="60" height="60" as="geometry" />
        </mxCell>
        <mxCell id="a_kwU8BcRcJPpGyx1TBg-80" value="BRS" style="whiteSpace=wrap;html=1;aspect=fixed;" vertex="1" parent="a_kwU8BcRcJPpGyx1TBg-2">
          <mxGeometry x="108" y="650" width="60" height="60" as="geometry" />
        </mxCell>
        <mxCell id="a_kwU8BcRcJPpGyx1TBg-81" value="VMC on AWS Services" style="text;html=1;align=center;verticalAlign=middle;whiteSpace=wrap;rounded=0;" vertex="1" parent="a_kwU8BcRcJPpGyx1TBg-2">
          <mxGeometry x="40" y="620" width="120" height="30" as="geometry" />
        </mxCell>
        <mxCell id="a_kwU8BcRcJPpGyx1TBg-82" value="" style="endArrow=classic;startArrow=classic;html=1;rounded=0;exitX=0.5;exitY=0;exitDx=0;exitDy=0;" edge="1" parent="a_kwU8BcRcJPpGyx1TBg-2" source="a_kwU8BcRcJPpGyx1TBg-79">
          <mxGeometry width="50" height="50" relative="1" as="geometry">
            <mxPoint x="280" y="600" as="sourcePoint" />
            <mxPoint x="140" y="340" as="targetPoint" />
          </mxGeometry>
        </mxCell>
        <mxCell id="a_kwU8BcRcJPpGyx1TBg-55" value="" style="rounded=0;whiteSpace=wrap;html=1;" vertex="1" parent="a_kwU8BcRcJPpGyx1TBg-2">
          <mxGeometry x="490" y="617.5" width="150" height="120" as="geometry" />
        </mxCell>
        <mxCell id="a_kwU8BcRcJPpGyx1TBg-56" value="" style="outlineConnect=0;dashed=0;verticalLabelPosition=bottom;verticalAlign=top;align=center;html=1;shape=mxgraph.aws3.cloudwatch;fillColor=#759C3E;gradientColor=none;" vertex="1" parent="a_kwU8BcRcJPpGyx1TBg-2">
          <mxGeometry x="500" y="629" width="60" height="73.75" as="geometry" />
        </mxCell>
        <mxCell id="a_kwU8BcRcJPpGyx1TBg-57" value="Cloud watch" style="text;html=1;align=center;verticalAlign=middle;whiteSpace=wrap;rounded=0;" vertex="1" parent="a_kwU8BcRcJPpGyx1TBg-2">
          <mxGeometry x="500" y="702.75" width="60" height="30" as="geometry" />
        </mxCell>
        <mxCell id="a_kwU8BcRcJPpGyx1TBg-58" value="Metrics&lt;div&gt;Traces&lt;/div&gt;&lt;div&gt;Logs&lt;/div&gt;" style="text;html=1;align=center;verticalAlign=middle;whiteSpace=wrap;rounded=0;" vertex="1" parent="a_kwU8BcRcJPpGyx1TBg-2">
          <mxGeometry x="570" y="659" width="60" height="28.13" as="geometry" />
        </mxCell>
        <mxCell id="a_kwU8BcRcJPpGyx1TBg-54" value="" style="endArrow=classic;startArrow=classic;html=1;rounded=0;entryX=0.874;entryY=0.924;entryDx=0;entryDy=0;entryPerimeter=0;exitX=0.145;exitY=-0.032;exitDx=0;exitDy=0;exitPerimeter=0;" edge="1" parent="a_kwU8BcRcJPpGyx1TBg-2" source="a_kwU8BcRcJPpGyx1TBg-55" target="a_kwU8BcRcJPpGyx1TBg-48">
          <mxGeometry width="50" height="50" relative="1" as="geometry">
            <mxPoint x="540" y="615" as="sourcePoint" />
            <mxPoint x="320" y="390" as="targetPoint" />
          </mxGeometry>
        </mxCell>
        <mxCell id="a_kwU8BcRcJPpGyx1TBg-155" value="" style="outlineConnect=0;dashed=0;verticalLabelPosition=bottom;verticalAlign=top;align=center;html=1;shape=mxgraph.aws3.dynamo_db;fillColor=#2E73B8;gradientColor=none;" vertex="1" parent="a_kwU8BcRcJPpGyx1TBg-2">
          <mxGeometry x="680" y="617.5" width="80" height="102.5" as="geometry" />
        </mxCell>
        <mxCell id="a_kwU8BcRcJPpGyx1TBg-159" value="WorktowExecution History&lt;div&gt;Workflow Metadata, Task, Schedule Metadata&lt;br&gt;&lt;div&gt;&lt;br&gt;&lt;/div&gt;&lt;/div&gt;" style="text;whiteSpace=wrap;html=1;" vertex="1" parent="a_kwU8BcRcJPpGyx1TBg-2">
          <mxGeometry x="648" y="740" width="231" height="50" as="geometry" />
        </mxCell>
        <mxCell id="a_kwU8BcRcJPpGyx1TBg-160" value="&lt;span style=&quot;color: rgb(0, 0, 0); font-family: Helvetica; font-size: 12px; font-style: normal; font-variant-ligatures: normal; font-variant-caps: normal; font-weight: 400; letter-spacing: normal; orphans: 2; text-align: left; text-indent: 0px; text-transform: none; widows: 2; word-spacing: 0px; -webkit-text-stroke-width: 0px; white-space: normal; background-color: rgb(236, 236, 236); text-decoration-thickness: initial; text-decoration-style: initial; text-decoration-color: initial; float: none; display: inline !important;&quot;&gt;DynomoDB&lt;/span&gt;" style="text;whiteSpace=wrap;html=1;" vertex="1" parent="a_kwU8BcRcJPpGyx1TBg-2">
          <mxGeometry x="665" y="720" width="110" height="40" as="geometry" />
        </mxCell>
        <mxCell id="a_kwU8BcRcJPpGyx1TBg-161" value="Redis&amp;nbsp;" style="text;html=1;align=center;verticalAlign=middle;whiteSpace=wrap;rounded=0;" vertex="1" parent="a_kwU8BcRcJPpGyx1TBg-2">
          <mxGeometry x="310" y="737" width="60" height="30" as="geometry" />
        </mxCell>
        <mxCell id="a_kwU8BcRcJPpGyx1TBg-162" value="State Persistence&lt;div&gt;Queue Persistance&lt;/div&gt;" style="text;whiteSpace=wrap;html=1;" vertex="1" parent="a_kwU8BcRcJPpGyx1TBg-2">
          <mxGeometry x="320" y="760" width="130" height="40" as="geometry" />
        </mxCell>
        <mxCell id="a_kwU8BcRcJPpGyx1TBg-8" value="" style="points=[];aspect=fixed;html=1;align=center;shadow=0;dashed=0;fillColor=#FF6A00;strokeColor=none;shape=mxgraph.alibaba_cloud.nlb_network_load_balancer_01;" vertex="1" parent="a_kwU8BcRcJPpGyx1TBg-1">
          <mxGeometry x="31.3" y="234.9" width="47.400000000000006" height="40.2" as="geometry" />
        </mxCell>
        <mxCell id="a_kwU8BcRcJPpGyx1TBg-9" value="NLB" style="text;html=1;align=center;verticalAlign=middle;resizable=0;points=[];autosize=1;strokeColor=none;fillColor=none;" vertex="1" parent="a_kwU8BcRcJPpGyx1TBg-1">
          <mxGeometry x="31.29999999999999" y="275.1" width="50" height="30" as="geometry" />
        </mxCell>
        <mxCell id="a_kwU8BcRcJPpGyx1TBg-10" value="" style="endArrow=classic;startArrow=classic;html=1;rounded=0;exitX=0.855;exitY=0.145;exitDx=0;exitDy=0;exitPerimeter=0;entryX=-0.064;entryY=0.842;entryDx=0;entryDy=0;entryPerimeter=0;" edge="1" parent="a_kwU8BcRcJPpGyx1TBg-1" source="a_kwU8BcRcJPpGyx1TBg-64" target="a_kwU8BcRcJPpGyx1TBg-11">
          <mxGeometry width="50" height="50" relative="1" as="geometry">
            <mxPoint x="360" y="470" as="sourcePoint" />
            <mxPoint x="410" y="420" as="targetPoint" />
            <Array as="points">
              <mxPoint x="194" y="181" />
            </Array>
          </mxGeometry>
        </mxCell>
        <mxCell id="a_kwU8BcRcJPpGyx1TBg-12" value="Ingress K8s" style="edgeLabel;html=1;align=center;verticalAlign=middle;resizable=0;points=[];" vertex="1" connectable="0" parent="a_kwU8BcRcJPpGyx1TBg-10">
          <mxGeometry x="0.012" y="1" relative="1" as="geometry">
            <mxPoint x="-33" y="102" as="offset" />
          </mxGeometry>
        </mxCell>
        <mxCell id="a_kwU8BcRcJPpGyx1TBg-33" value="" style="endArrow=classic;startArrow=classic;html=1;rounded=0;entryX=0;entryY=0.5;entryDx=0;entryDy=0;exitX=0.5;exitY=1;exitDx=0;exitDy=0;exitPerimeter=0;" edge="1" parent="a_kwU8BcRcJPpGyx1TBg-1" source="a_kwU8BcRcJPpGyx1TBg-29" target="a_kwU8BcRcJPpGyx1TBg-36">
          <mxGeometry width="50" height="50" relative="1" as="geometry">
            <mxPoint x="330" y="570" as="sourcePoint" />
            <mxPoint x="521.8747065727698" y="658.8934918102364" as="targetPoint" />
            <Array as="points">
              <mxPoint x="293" y="728" />
            </Array>
          </mxGeometry>
        </mxCell>
        <mxCell id="a_kwU8BcRcJPpGyx1TBg-36" value="" style="rounded=0;whiteSpace=wrap;html=1;" vertex="1" parent="a_kwU8BcRcJPpGyx1TBg-1">
          <mxGeometry x="355" y="667.5" width="215" height="120" as="geometry" />
        </mxCell>
        <mxCell id="a_kwU8BcRcJPpGyx1TBg-39" value="" style="shape=cylinder3;whiteSpace=wrap;html=1;boundedLbl=1;backgroundOutline=1;size=15;rotation=90;" vertex="1" parent="a_kwU8BcRcJPpGyx1TBg-1">
          <mxGeometry x="477.5" y="639" width="25" height="110" as="geometry" />
        </mxCell>
        <mxCell id="a_kwU8BcRcJPpGyx1TBg-42" value="" style="shape=cylinder3;whiteSpace=wrap;html=1;boundedLbl=1;backgroundOutline=1;size=15;rotation=90;" vertex="1" parent="a_kwU8BcRcJPpGyx1TBg-1">
          <mxGeometry x="477.5" y="709.5" width="25" height="110" as="geometry" />
        </mxCell>
        <mxCell id="a_kwU8BcRcJPpGyx1TBg-44" value="Domain1" style="text;html=1;align=center;verticalAlign=middle;whiteSpace=wrap;rounded=0;" vertex="1" parent="a_kwU8BcRcJPpGyx1TBg-1">
          <mxGeometry x="460" y="679" width="60" height="30" as="geometry" />
        </mxCell>
        <mxCell id="a_kwU8BcRcJPpGyx1TBg-46" value="DomainN" style="text;html=1;align=center;verticalAlign=middle;whiteSpace=wrap;rounded=0;" vertex="1" parent="a_kwU8BcRcJPpGyx1TBg-1">
          <mxGeometry x="460" y="750" width="60" height="29" as="geometry" />
        </mxCell>
        <mxCell id="a_kwU8BcRcJPpGyx1TBg-47" value="" style="endArrow=none;dashed=1;html=1;dashPattern=1 3;strokeWidth=2;rounded=0;entryX=0.38;entryY=0.989;entryDx=0;entryDy=0;exitX=0.37;exitY=0.004;exitDx=0;exitDy=0;exitPerimeter=0;entryPerimeter=0;" edge="1" parent="a_kwU8BcRcJPpGyx1TBg-1" source="a_kwU8BcRcJPpGyx1TBg-157" target="a_kwU8BcRcJPpGyx1TBg-44">
          <mxGeometry width="50" height="50" relative="1" as="geometry">
            <mxPoint x="315" y="489" as="sourcePoint" />
            <mxPoint x="365" y="439" as="targetPoint" />
          </mxGeometry>
        </mxCell>
        <mxCell id="a_kwU8BcRcJPpGyx1TBg-49" value="Amazon ElastiCache for Redis" style="sketch=0;outlineConnect=0;fontColor=#232F3E;gradientColor=none;strokeColor=#ffffff;fillColor=#232F3E;dashed=0;verticalLabelPosition=middle;verticalAlign=bottom;align=center;html=1;whiteSpace=wrap;fontSize=10;fontStyle=1;spacing=3;shape=mxgraph.aws4.productIcon;prIcon=mxgraph.aws4.elasticache_for_redis;" vertex="1" parent="a_kwU8BcRcJPpGyx1TBg-1">
          <mxGeometry x="370" y="676.25" width="60" height="102.5" as="geometry" />
        </mxCell>
        <mxCell id="a_kwU8BcRcJPpGyx1TBg-64" value="" style="outlineConnect=0;dashed=0;verticalLabelPosition=bottom;verticalAlign=top;align=center;html=1;shape=mxgraph.aws3.classic_load_balancer;fillColor=#F58536;gradientColor=none;" vertex="1" parent="a_kwU8BcRcJPpGyx1TBg-1">
          <mxGeometry x="160" y="242.9" width="40" height="42" as="geometry" />
        </mxCell>
        <mxCell id="a_kwU8BcRcJPpGyx1TBg-65" value="" style="endArrow=classic;startArrow=classic;html=1;rounded=0;exitX=0.839;exitY=0.68;exitDx=0;exitDy=0;exitPerimeter=0;entryX=0;entryY=0.5;entryDx=0;entryDy=0;entryPerimeter=0;" edge="1" parent="a_kwU8BcRcJPpGyx1TBg-1" source="a_kwU8BcRcJPpGyx1TBg-8" target="a_kwU8BcRcJPpGyx1TBg-64">
          <mxGeometry width="50" height="50" relative="1" as="geometry">
            <mxPoint x="271" y="272" as="sourcePoint" />
            <mxPoint x="455" y="275" as="targetPoint" />
          </mxGeometry>
        </mxCell>
        <mxCell id="a_kwU8BcRcJPpGyx1TBg-63" value="" style="endArrow=classic;startArrow=classic;html=1;rounded=0;entryX=0;entryY=0.75;entryDx=0;entryDy=0;exitX=0.855;exitY=0.855;exitDx=0;exitDy=0;exitPerimeter=0;" edge="1" parent="a_kwU8BcRcJPpGyx1TBg-1" source="a_kwU8BcRcJPpGyx1TBg-64" target="a_kwU8BcRcJPpGyx1TBg-59">
          <mxGeometry width="50" height="50" relative="1" as="geometry">
            <mxPoint x="185" y="275" as="sourcePoint" />
            <mxPoint x="280" y="360" as="targetPoint" />
            <Array as="points">
              <mxPoint x="194" y="354" />
            </Array>
          </mxGeometry>
        </mxCell>
        <mxCell id="a_kwU8BcRcJPpGyx1TBg-158" value="" style="endArrow=none;dashed=1;html=1;dashPattern=1 3;strokeWidth=2;rounded=0;entryX=0.38;entryY=0.989;entryDx=0;entryDy=0;exitX=0.37;exitY=0.004;exitDx=0;exitDy=0;exitPerimeter=0;entryPerimeter=0;" edge="1" parent="a_kwU8BcRcJPpGyx1TBg-1" source="a_kwU8BcRcJPpGyx1TBg-46" target="a_kwU8BcRcJPpGyx1TBg-157">
          <mxGeometry width="50" height="50" relative="1" as="geometry">
            <mxPoint x="682" y="760" as="sourcePoint" />
            <mxPoint x="683" y="719" as="targetPoint" />
          </mxGeometry>
        </mxCell>
        <mxCell id="a_kwU8BcRcJPpGyx1TBg-157" value="Redis Task Queue" style="text;html=1;align=center;verticalAlign=middle;whiteSpace=wrap;rounded=0;" vertex="1" parent="a_kwU8BcRcJPpGyx1TBg-1">
          <mxGeometry x="437.5" y="712.5" width="100" height="30" as="geometry" />
        </mxCell>
        <mxCell id="a_kwU8BcRcJPpGyx1TBg-13" value="" style="endArrow=classic;startArrow=classic;html=1;rounded=0;exitX=0.143;exitY=0.655;exitDx=0;exitDy=0;exitPerimeter=0;" edge="1" parent="1" source="a_kwU8BcRcJPpGyx1TBg-8" target="a_kwU8BcRcJPpGyx1TBg-14">
          <mxGeometry width="50" height="50" relative="1" as="geometry">
            <mxPoint x="560" y="480" as="sourcePoint" />
            <mxPoint x="150" y="376" as="targetPoint" />
          </mxGeometry>
        </mxCell>
        <mxCell id="a_kwU8BcRcJPpGyx1TBg-14" value="" style="sketch=0;points=[[0,0,0],[0.25,0,0],[0.5,0,0],[0.75,0,0],[1,0,0],[0,1,0],[0.25,1,0],[0.5,1,0],[0.75,1,0],[1,1,0],[0,0.25,0],[0,0.5,0],[0,0.75,0],[1,0.25,0],[1,0.5,0],[1,0.75,0]];outlineConnect=0;fontColor=#232F3E;fillColor=#8C4FFF;strokeColor=#ffffff;dashed=0;verticalLabelPosition=bottom;verticalAlign=top;align=center;html=1;fontSize=12;fontStyle=0;aspect=fixed;shape=mxgraph.aws4.resourceIcon;resIcon=mxgraph.aws4.route_53;" vertex="1" parent="1">
          <mxGeometry x="90" y="244.9" width="58" height="58" as="geometry" />
        </mxCell>
        <mxCell id="a_kwU8BcRcJPpGyx1TBg-15" value="" style="endArrow=classic;html=1;rounded=0;exitX=0.5;exitY=0;exitDx=0;exitDy=0;exitPerimeter=0;" edge="1" parent="1" source="a_kwU8BcRcJPpGyx1TBg-14">
          <mxGeometry width="50" height="50" relative="1" as="geometry">
            <mxPoint x="560" y="480" as="sourcePoint" />
            <mxPoint x="120" y="160" as="targetPoint" />
          </mxGeometry>
        </mxCell>
        <mxCell id="a_kwU8BcRcJPpGyx1TBg-17" value="" style="outlineConnect=0;dashed=0;verticalLabelPosition=bottom;verticalAlign=top;align=center;html=1;shape=mxgraph.aws3.users;fillColor=#D2D3D3;gradientColor=none;" vertex="1" parent="1">
          <mxGeometry x="82" y="100" width="66" height="63" as="geometry" />
        </mxCell>
        <mxCell id="a_kwU8BcRcJPpGyx1TBg-83" value="Region" style="points=[[0,0],[0.25,0],[0.5,0],[0.75,0],[1,0],[1,0.25],[1,0.5],[1,0.75],[1,1],[0.75,1],[0.5,1],[0.25,1],[0,1],[0,0.75],[0,0.5],[0,0.25]];outlineConnect=0;gradientColor=none;html=1;whiteSpace=wrap;fontSize=12;fontStyle=0;container=1;pointerEvents=0;collapsible=0;recursiveResize=0;shape=mxgraph.aws4.group;grIcon=mxgraph.aws4.group_region;strokeColor=#00A4A6;fillColor=none;verticalAlign=top;align=left;spacingLeft=30;fontColor=#147EBA;dashed=1;" vertex="1" parent="1">
          <mxGeometry x="230" y="890" width="790" height="360" as="geometry" />
        </mxCell>
        <mxCell id="a_kwU8BcRcJPpGyx1TBg-135" value="VPC" style="points=[[0,0],[0.25,0],[0.5,0],[0.75,0],[1,0],[1,0.25],[1,0.5],[1,0.75],[1,1],[0.75,1],[0.5,1],[0.25,1],[0,1],[0,0.75],[0,0.5],[0,0.25]];outlineConnect=0;gradientColor=none;html=1;whiteSpace=wrap;fontSize=12;fontStyle=0;container=1;pointerEvents=0;collapsible=0;recursiveResize=0;shape=mxgraph.aws4.group;grIcon=mxgraph.aws4.group_vpc2;strokeColor=#8C4FFF;fillColor=none;verticalAlign=top;align=left;spacingLeft=30;fontColor=#AAB7B8;dashed=0;" vertex="1" parent="a_kwU8BcRcJPpGyx1TBg-83">
          <mxGeometry x="68" y="30" width="692" height="310" as="geometry" />
        </mxCell>
        <mxCell id="a_kwU8BcRcJPpGyx1TBg-137" value="" style="whiteSpace=wrap;html=1;aspect=fixed;" vertex="1" parent="a_kwU8BcRcJPpGyx1TBg-135">
          <mxGeometry x="390" y="50" width="230" height="230" as="geometry" />
        </mxCell>
        <mxCell id="a_kwU8BcRcJPpGyx1TBg-136" value="" style="whiteSpace=wrap;html=1;aspect=fixed;" vertex="1" parent="a_kwU8BcRcJPpGyx1TBg-135">
          <mxGeometry x="42" y="49.5" width="231" height="231" as="geometry" />
        </mxCell>
        <mxCell id="a_kwU8BcRcJPpGyx1TBg-138" value="SDDC ESXi Clusters" style="text;html=1;align=center;verticalAlign=middle;whiteSpace=wrap;rounded=0;" vertex="1" parent="a_kwU8BcRcJPpGyx1TBg-135">
          <mxGeometry x="42" y="49.5" width="148" height="30" as="geometry" />
        </mxCell>
        <mxCell id="a_kwU8BcRcJPpGyx1TBg-139" value="" style="sketch=0;points=[[0,0,0],[0.25,0,0],[0.5,0,0],[0.75,0,0],[1,0,0],[0,1,0],[0.25,1,0],[0.5,1,0],[0.75,1,0],[1,1,0],[0,0.25,0],[0,0.5,0],[0,0.75,0],[1,0.25,0],[1,0.5,0],[1,0.75,0]];outlineConnect=0;fontColor=#232F3E;fillColor=#ED7100;strokeColor=#ffffff;dashed=0;verticalLabelPosition=bottom;verticalAlign=top;align=center;html=1;fontSize=12;fontStyle=0;aspect=fixed;shape=mxgraph.aws4.resourceIcon;resIcon=mxgraph.aws4.ec2;" vertex="1" parent="a_kwU8BcRcJPpGyx1TBg-135">
          <mxGeometry x="62" y="79.5" width="78" height="78" as="geometry" />
        </mxCell>
        <mxCell id="a_kwU8BcRcJPpGyx1TBg-141" value="" style="sketch=0;points=[[0,0,0],[0.25,0,0],[0.5,0,0],[0.75,0,0],[1,0,0],[0,1,0],[0.25,1,0],[0.5,1,0],[0.75,1,0],[1,1,0],[0,0.25,0],[0,0.5,0],[0,0.75,0],[1,0.25,0],[1,0.5,0],[1,0.75,0]];outlineConnect=0;fontColor=#232F3E;fillColor=#ED7100;strokeColor=#ffffff;dashed=0;verticalLabelPosition=bottom;verticalAlign=top;align=center;html=1;fontSize=12;fontStyle=0;aspect=fixed;shape=mxgraph.aws4.resourceIcon;resIcon=mxgraph.aws4.ec2;" vertex="1" parent="a_kwU8BcRcJPpGyx1TBg-135">
          <mxGeometry x="140" y="149.5" width="78" height="78" as="geometry" />
        </mxCell>
        <mxCell id="a_kwU8BcRcJPpGyx1TBg-142" value="Bare Metal Ec2 Instances" style="text;html=1;align=center;verticalAlign=middle;whiteSpace=wrap;rounded=0;" vertex="1" parent="a_kwU8BcRcJPpGyx1TBg-135">
          <mxGeometry x="66" y="239.5" width="184" height="30" as="geometry" />
        </mxCell>
        <mxCell id="a_kwU8BcRcJPpGyx1TBg-140" value="" style="sketch=0;points=[[0,0,0],[0.25,0,0],[0.5,0,0],[0.75,0,0],[1,0,0],[0,1,0],[0.25,1,0],[0.5,1,0],[0.75,1,0],[1,1,0],[0,0.25,0],[0,0.5,0],[0,0.75,0],[1,0.25,0],[1,0.5,0],[1,0.75,0]];outlineConnect=0;fontColor=#232F3E;fillColor=#ED7100;strokeColor=#ffffff;dashed=0;verticalLabelPosition=bottom;verticalAlign=top;align=center;html=1;fontSize=12;fontStyle=0;aspect=fixed;shape=mxgraph.aws4.resourceIcon;resIcon=mxgraph.aws4.ec2;" vertex="1" parent="a_kwU8BcRcJPpGyx1TBg-135">
          <mxGeometry x="102" y="119.5" width="78" height="78" as="geometry" />
        </mxCell>
        <mxCell id="a_kwU8BcRcJPpGyx1TBg-143" value="" style="points=[];aspect=fixed;html=1;align=center;shadow=0;dashed=0;fillColor=#FF6A00;strokeColor=none;shape=mxgraph.alibaba_cloud.router;" vertex="1" parent="a_kwU8BcRcJPpGyx1TBg-135">
          <mxGeometry x="477.4" y="50" width="55.2" height="57.599999999999994" as="geometry" />
        </mxCell>
        <mxCell id="a_kwU8BcRcJPpGyx1TBg-147" value="Managment Plane" style="text;html=1;align=center;verticalAlign=middle;whiteSpace=wrap;rounded=0;" vertex="1" parent="a_kwU8BcRcJPpGyx1TBg-135">
          <mxGeometry x="390" y="49" width="100" height="30.5" as="geometry" />
        </mxCell>
        <mxCell id="a_kwU8BcRcJPpGyx1TBg-148" value="vCenter" style="whiteSpace=wrap;html=1;aspect=fixed;" vertex="1" parent="a_kwU8BcRcJPpGyx1TBg-135">
          <mxGeometry x="410" y="107.6" width="52.4" height="52.4" as="geometry" />
        </mxCell>
        <mxCell id="a_kwU8BcRcJPpGyx1TBg-149" value="NSX" style="whiteSpace=wrap;html=1;aspect=fixed;" vertex="1" parent="a_kwU8BcRcJPpGyx1TBg-135">
          <mxGeometry x="482" y="107.6" width="52.4" height="52.4" as="geometry" />
        </mxCell>
        <mxCell id="a_kwU8BcRcJPpGyx1TBg-150" value="vSan" style="whiteSpace=wrap;html=1;aspect=fixed;" vertex="1" parent="a_kwU8BcRcJPpGyx1TBg-135">
          <mxGeometry x="442" y="180" width="60" height="60" as="geometry" />
        </mxCell>
        <mxCell id="a_kwU8BcRcJPpGyx1TBg-151" value="" style="endArrow=classic;startArrow=classic;html=1;rounded=0;exitX=1;exitY=0.5;exitDx=0;exitDy=0;" edge="1" parent="a_kwU8BcRcJPpGyx1TBg-135" source="a_kwU8BcRcJPpGyx1TBg-136" target="a_kwU8BcRcJPpGyx1TBg-137">
          <mxGeometry width="50" height="50" relative="1" as="geometry">
            <mxPoint x="312" y="-150" as="sourcePoint" />
            <mxPoint x="362" y="-200" as="targetPoint" />
          </mxGeometry>
        </mxCell>
        <mxCell id="a_kwU8BcRcJPpGyx1TBg-145" value="NSX-T Tier-0 Router" style="text;html=1;align=center;verticalAlign=middle;whiteSpace=wrap;rounded=0;" vertex="1" parent="a_kwU8BcRcJPpGyx1TBg-135">
          <mxGeometry x="522" y="63.799999999999955" width="60" height="30" as="geometry" />
        </mxCell>
        <mxCell id="a_kwU8BcRcJPpGyx1TBg-153" value="VMC on AWS SDDC" style="text;html=1;align=center;verticalAlign=middle;whiteSpace=wrap;rounded=0;" vertex="1" parent="a_kwU8BcRcJPpGyx1TBg-83">
          <mxGeometry x="50" width="160" height="30" as="geometry" />
        </mxCell>
        <mxCell id="a_kwU8BcRcJPpGyx1TBg-166" style="edgeStyle=orthogonalEdgeStyle;rounded=0;orthogonalLoop=1;jettySize=auto;html=1;exitX=0.5;exitY=1;exitDx=0;exitDy=0;" edge="1" parent="a_kwU8BcRcJPpGyx1TBg-83" source="a_kwU8BcRcJPpGyx1TBg-135" target="a_kwU8BcRcJPpGyx1TBg-135">
          <mxGeometry relative="1" as="geometry" />
        </mxCell>
        <mxCell id="a_kwU8BcRcJPpGyx1TBg-144" value="" style="endArrow=classic;startArrow=classic;html=1;rounded=0;" edge="1" parent="1" target="a_kwU8BcRcJPpGyx1TBg-67">
          <mxGeometry width="50" height="50" relative="1" as="geometry">
            <mxPoint x="810" y="970" as="sourcePoint" />
            <mxPoint x="630" y="720" as="targetPoint" />
            <Array as="points">
              <mxPoint x="810" y="870" />
              <mxPoint x="880" y="870" />
              <mxPoint x="1140" y="870" />
              <mxPoint x="1140" y="505" />
            </Array>
          </mxGeometry>
        </mxCell>
      </root>
    </mxGraphModel>
  </diagram>
</mxfile>
